<?xml version="1.0" standalone="no"?>
<!DOCTYPE svg PUBLIC "-//W3C//DTD SVG 20010904//EN"
 "http://www.w3.org/TR/2001/REC-SVG-20010904/DTD/svg10.dtd">
<svg version="1.0" xmlns="http://www.w3.org/2000/svg"
 width="260.000000pt" height="260.000000pt" viewBox="0 0 260.000000 260.000000"
 preserveAspectRatio="xMidYMid meet">
<metadata>
Created by potrace 1.11, written by Peter Selinger 2001-2013
</metadata>
<g transform="translate(0.000000,260.000000) scale(0.100000,-0.100000)"
fill="#000000" stroke="none">
<path d="M0 1300 l0 -1300 1300 0 1300 0 0 1300 0 1300 -1300 0 -1300 0 0
-1300z m1394 845 c154 -27 263 -104 320 -225 26 -55 31 -80 34 -162 7 -165
-47 -287 -158 -359 -49 -32 -51 -34 -28 -43 122 -47 191 -101 241 -187 72
-123 76 -312 8 -452 -51 -104 -156 -188 -295 -234 -80 -27 -85 -27 -401 -31
-316 -4 -321 -3 -348 18 l-27 21 0 814 0 814 26 20 c26 20 39 21 288 21 179
-1 286 -5 340 -15z"/>
<path d="M960 1700 l0 -280 150 0 c82 0 172 5 200 11 78 17 139 63 175 133 26
53 30 70 30 146 0 109 -27 169 -97 216 -61 41 -136 54 -316 54 l-142 0 0 -280z"/>
<path d="M960 939 l0 -301 218 4 c214 3 218 3 277 31 33 16 71 38 83 50 102
95 110 295 16 405 -74 87 -168 112 -421 112 l-173 0 0 -301z"/>
</g>
</svg>
