<svg width="36" height="36" viewBox="0 0 36 36" fill="none" xmlns="http://www.w3.org/2000/svg">
<path d="M32.3989 18.246H17.754V3.60109C17.754 3.42109 17.6067 3.27383 17.4267 3.27383H16.3631C14.2142 3.27031 12.0859 3.69172 10.1004 4.51383C8.11503 5.33593 6.31177 6.5425 4.79441 8.06412C3.30009 9.55382 2.10943 11.3197 1.28862 13.2635C0.434486 15.2796 -0.00380125 17.4474 2.48356e-05 19.6369C-0.00349398 21.7858 0.417922 23.9142 1.24003 25.8996C2.06213 27.885 3.2687 29.6882 4.79032 31.2056C6.29163 32.7069 8.04248 33.8891 9.98969 34.7114C12.0058 35.5655 14.1736 36.0038 16.3631 36C18.512 36.0035 20.6404 35.5821 22.6258 34.76C24.6112 33.9379 26.4144 32.7313 27.9318 31.2097C29.4331 29.7084 30.6153 27.9575 31.4376 26.0103C32.2917 23.9942 32.73 21.8264 32.7262 19.6369V18.5733C32.7262 18.3933 32.5789 18.246 32.3989 18.246ZM25.9232 29.2829C24.6565 30.5398 23.1543 31.5343 21.5025 32.2096C19.8508 32.8849 18.0821 33.2277 16.2977 33.2183C12.6937 33.2019 9.30653 31.7906 6.75798 29.242C4.19306 26.6771 2.78175 23.2654 2.78175 19.6369C2.78175 16.0084 4.19306 12.5967 6.75798 10.0318C8.99154 7.79822 11.8673 6.43599 14.9722 6.12509V21.0278H29.8749C29.5599 24.149 28.1854 27.0412 25.9232 29.2829ZM35.9988 15.9716L35.8924 14.818C35.5447 11.0504 33.8716 7.4955 31.1799 4.81196C28.4863 2.12349 24.9387 0.459646 21.1493 0.107572L19.9916 0.00121196C19.7994 -0.0151511 19.6357 0.132117 19.6357 0.324383V16.037C19.6357 16.217 19.783 16.3643 19.963 16.3643L35.6715 16.3234C35.8638 16.3234 36.0152 16.1597 35.9988 15.9716ZM22.4093 13.5907V3.09383C24.9862 3.63319 27.351 4.90939 29.2163 6.76734C31.0858 8.63273 32.3662 11.0054 32.898 13.5621L22.4093 13.5907Z" fill="#FFF5F5" fill-opacity="0.65"/>
</svg>
